<svg id="Layer_1" data-name="Layer 1" xmlns="http://www.w3.org/2000/svg" viewBox="0 0 200 30"><defs><style>.cls-1,.cls-4{fill:none;}.cls-1,.cls-2,.cls-3,.cls-4,.cls-5{stroke:#ac1f24;stroke-width:0.25px;}.cls-1,.cls-3,.cls-4{stroke-linecap:round;}.cls-1,.cls-3{stroke-linejoin:round;}.cls-2,.cls-3,.cls-5{fill:#ac1f25;}.cls-2,.cls-5{stroke-miterlimit:10;}.cls-4{stroke-linejoin:bevel;}.cls-5{font-size:12px;font-family:Arial-Black, Arial;font-weight:800;}.cls-6{letter-spacing:0.01em;}.cls-7{letter-spacing:0em;}.cls-8{letter-spacing:-0.03em;}.cls-9{letter-spacing:0em;}.cls-10{letter-spacing:0.02em;}.cls-11{letter-spacing:0.06em;}.cls-12{letter-spacing:-0.06em;}.cls-13{letter-spacing:-0.02em;}.cls-14{letter-spacing:0.02em;}</style></defs><title>BUET_logo_webmail</title><line class="cls-1" x1="4.02" y1="15.04" x2="26.86" y2="15.04"/><line class="cls-1" x1="4.06" y1="13.91" x2="26.82" y2="13.91"/><line class="cls-1" x1="4.22" y1="12.79" x2="26.67" y2="12.79"/><line class="cls-1" x1="4.49" y1="11.66" x2="26.39" y2="11.66"/><line class="cls-1" x1="4.89" y1="10.53" x2="26" y2="10.53"/><line class="cls-1" x1="5.42" y1="9.4" x2="25.45" y2="9.4"/><line class="cls-1" x1="7.29" y1="8.29" x2="24.74" y2="8.29"/><line class="cls-1" x1="7.29" y1="7.17" x2="23.83" y2="7.17"/><line class="cls-1" x1="8.25" y1="6.04" x2="22.63" y2="6.04"/><line class="cls-1" x1="9.93" y1="4.91" x2="20.96" y2="4.91"/><line class="cls-1" x1="25.32" y1="9.17" x2="25.32" y2="15.04"/><line class="cls-1" x1="24.19" y1="7.57" x2="24.19" y2="15.04"/><line class="cls-1" x1="23.06" y1="6.4" x2="23.06" y2="15.04"/><line class="cls-1" x1="21.94" y1="5.51" x2="21.94" y2="14.98"/><line class="cls-1" x1="20.81" y1="4.81" x2="20.81" y2="15.01"/><line class="cls-1" x1="19.69" y1="4.3" x2="19.69" y2="15.04"/><line class="cls-1" x1="18.56" y1="3.91" x2="18.56" y2="15.04"/><line class="cls-1" x1="17.43" y1="3.66" x2="17.43" y2="15.04"/><line class="cls-1" x1="16.3" y1="3.49" x2="16.3" y2="15.04"/><line class="cls-1" x1="15.18" y1="3.49" x2="15.18" y2="15.04"/><line class="cls-1" x1="14.05" y1="3.57" x2="14.05" y2="15.04"/><line class="cls-1" x1="12.92" y1="3.78" x2="12.92" y2="15.04"/><line class="cls-1" x1="11.79" y1="4.09" x2="11.79" y2="15.04"/><line class="cls-1" x1="10.66" y1="4.52" x2="10.66" y2="15.04"/><line class="cls-1" x1="7.29" y1="6.91" x2="7.29" y2="15.04"/><line class="cls-1" x1="6.16" y1="8.11" x2="6.16" y2="15.04"/><line class="cls-1" x1="5.03" y1="10.53" x2="5.03" y2="15.04"/><line class="cls-1" x1="9.54" y1="5.14" x2="9.54" y2="15.04"/><line class="cls-1" x1="8.41" y1="5.9" x2="8.41" y2="15.04"/><line class="cls-1" x1="15.44" y1="25.24" x2="20.33" y2="25.24"/><line class="cls-1" x1="15.44" y1="24.11" x2="22.21" y2="24.11"/><line class="cls-1" x1="15.45" y1="22.99" x2="23.53" y2="22.99"/><line class="cls-1" x1="15.45" y1="21.86" x2="24.52" y2="21.86"/><line class="cls-1" x1="7.54" y1="20.73" x2="25.28" y2="20.73"/><line class="cls-1" x1="5.05" y1="19.6" x2="25.86" y2="19.6"/><line class="cls-1" x1="24.46" y1="19.6" x2="24.46" y2="21.92"/><line class="cls-1" x1="23.33" y1="19.6" x2="23.33" y2="23.16"/><line class="cls-1" x1="22.21" y1="19.6" x2="22.21" y2="24.11"/><line class="cls-1" x1="21.09" y1="19.6" x2="21.09" y2="24.84"/><line class="cls-1" x1="19.96" y1="19.6" x2="19.96" y2="25.4"/><line class="cls-1" x1="18.83" y1="19.6" x2="18.83" y2="25.81"/><line class="cls-1" x1="17.7" y1="19.6" x2="17.7" y2="26.11"/><line class="cls-1" x1="16.58" y1="19.6" x2="16.58" y2="26.26"/><line class="cls-1" x1="5.03" y1="15.04" x2="7.29" y2="15.04"/><path class="cls-2" d="M16,30l.38-1.5.91-.08.66,1.39.48-.09.49-.1L19,28.08c.29-.07.58-.17.87-.26l.93,1.24.45-.19.46-.19-.22-1.53a7,7,0,0,0,.8-.44l1.15,1,.41-.26.4-.28-.52-1.46c.24-.19.49-.38.7-.58l1.33.79.35-.34.34-.35-.78-1.34c.2-.23.39-.46.58-.7l1.46.52.28-.4c.09-.14.18-.27.26-.41l-1-1.15c.16-.26.3-.53.44-.8l1.53.22.19-.46c.07-.15.12-.3.19-.45l-1.24-.93a7.18,7.18,0,0,0,.26-.87l1.54-.08c0-.16.07-.32.1-.49s0-.32.08-.48l-1.39-.66c0-.3.07-.61.09-.91l1.5-.38c0-.16,0-.32,0-.49s0-.33,0-.5L29,14.13c0-.3-.05-.61-.09-.9l1.39-.66c0-.17-.05-.32-.08-.49s-.07-.32-.1-.48l-1.54-.08c-.07-.29-.17-.59-.26-.88l1.24-.92c-.06-.16-.12-.3-.19-.46l-.19-.45L27.61,9c-.13-.27-.28-.54-.44-.81l1-1.14L28,6.65c-.09-.14-.18-.27-.28-.4l-1.46.51c-.19-.24-.38-.48-.58-.7l.78-1.33-.34-.35L25.72,4l-1.33.79-.7-.58.52-1.46-.4-.28c-.14-.09-.27-.19-.41-.27l-1.15,1c-.26-.15-.53-.3-.8-.43l.22-1.53-.46-.19L20.76.94l-.93,1.24c-.29-.1-.58-.2-.87-.27L18.88.38l-.49-.1L17.91.19l-.66,1.39-.91-.09L16,0a2.8,2.8,0,0,0-.5,0H15l-.38,1.49c-.3,0-.61,0-.9.08L13,.16l-.49.09L12,.35h0L12,1.89l-.88.27L10.16.92l-.46.19c-.15,0-.3.12-.46.19l.23,1.53a9,9,0,0,0-.81.43l-1.14-1-.4.27a2.86,2.86,0,0,0-.4.28l.51,1.45c-.24.19-.48.38-.7.58L5.2,4l-.35.34-.34.35L5.31,6l-.59.7L3.27,6.22,3,6.62c-.08.13-.18.27-.26.41l1,1.14c-.15.27-.3.54-.44.81L1.8,8.76l-.2.45c-.06.16-.19.45-.19.45l1.23.92c-.09.3-.19.59-.26.88l-1.54.08L.75,12c0,.17-.1.49-.1.49l1.4.66c0,.3-.07.6-.09.91l-1.49.4c0,.17,0,.32,0,.5v.5L2,15.85c0,.31.05.62.09.91l-1.39.66.09.49c0,.16.07.32.09.48l1.54.08c.08.29.18.58.26.87l-1.23.93.18.46.19.45L3.3,21c.13.27.29.54.44.81l-1,1.14.26.41c.09.14.28.4.28.4l1.45-.52a8.36,8.36,0,0,0,.59.7l-.79,1.34.34.35.35.34,1.33-.8.7.58L6.7,27.17c.12.09.27.2.4.28l.4.27,1.15-1a9.1,9.1,0,0,0,.81.44l-.21,1.53.46.19.46.19.91-1.23a7.32,7.32,0,0,0,.88.26L12,29.62l.49.1.49.09.66-1.39.9.08L15,30M7.3,15.12V7A11.42,11.42,0,1,1,15.46,26.4h0V19.69h-3.4v2.25H10.94V19.68H8.68v2.25H7.55V19.68H5A11.44,11.44,0,0,1,6.16,8.32V10.6H5v4.52"/><polygon class="cls-3" points="10.66 12.79 9.54 12.79 9.54 11.66 8.41 11.66 8.41 15.04 10.66 15.04 10.66 12.79"/><polygon class="cls-3" points="12.92 9.4 14.05 9.4 14.05 7.17 15.18 7.17 15.18 15.04 11.79 15.04 11.79 6.04 12.92 6.04 12.92 9.4"/><rect class="cls-1" x="5.05" y="15.85" width="20.69" height="3.1"/><rect class="cls-4" x="17.62" y="15.85" width="3.47" height="3.1"/><line class="cls-4" x1="19.36" y1="15.85" x2="19.36" y2="18.95"/><polyline class="cls-1" points="25.74 16.85 24.98 16.85 24.8 17.21 24.61 16.85 24.42 16.5 24.24 16.85 24.05 17.21 23.86 16.85 23.67 16.5 23.48 16.85 23.29 17.21 23.11 16.85 22.91 16.5 22.72 16.85 22.54 16.85 22.16 16.85 20.66 16.85 14.44 16.85 14.25 17.21 14.06 16.85 13.86 16.5 13.69 16.85 13.49 17.21 13.3 16.85 13.12 16.5 12.93 16.85 12.74 17.21 12.55 16.85 12.37 16.5 12.18 16.85 8.59 16.85 8.4 17.21 8.22 16.85 8.03 16.5 7.83 16.85 7.66 17.21 7.46 16.85 7.28 16.5 7.09 16.85 6.9 17.21 6.72 16.85 6.52 16.5 6.33 16.85 5.01 16.85"/><polyline class="cls-1" points="25.74 17.88 24.05 17.88 23.86 18.23 23.67 17.88 23.48 17.53 23.29 17.88 23.11 18.23 22.91 17.88 22.72 17.53 22.54 17.88 22.35 18.23 22.16 17.88 21.98 17.53 21.79 17.88 21.22 17.88 19.9 17.88 16.89 17.88 16.69 18.23 16.52 17.88 16.32 17.53 16.13 17.88 15.94 18.23 15.76 17.88 15.56 17.53 15.38 17.88 15.2 18.23 15 17.88 14.81 17.53 14.62 17.88 11.05 17.88 10.86 18.23 10.66 17.88 10.48 17.53 10.29 17.88 10.1 18.23 9.91 17.88 9.73 17.53 9.54 17.88 9.35 18.23 9.16 17.88 8.97 17.53 8.79 17.88 5.01 17.88"/><rect class="cls-3" x="17.6" y="18.95" width="3.47" height="0.26"/><rect class="cls-3" x="17.62" y="15.59" width="3.47" height="0.26"/><text class="cls-5" transform="translate(34.32 10.98) scale(0.92 1)">Ban<tspan class="cls-6" x="25.34" y="0">g</tspan><tspan class="cls-7" x="33.46" y="0">ladesh Uni</tspan><tspan class="cls-8" x="102.8" y="0">v</tspan><tspan class="cls-9" x="109.82" y="0">e</tspan><tspan class="cls-10" x="117.83" y="0">r</tspan><tspan x="123.45" y="0">sity o</tspan><tspan class="cls-11" x="159.44" y="0">f</tspan><tspan x="0" y="14.4">Engineering &amp; </tspan><tspan class="cls-12" x="96.69" y="14.4">T</tspan><tspan x="104.63" y="14.4">e</tspan><tspan class="cls-13" x="112.63" y="14.4">c</tspan><tspan x="120.43" y="14.4">hnolo</tspan><tspan class="cls-14" x="156.45" y="14.4">g</tspan><tspan x="164.65" y="14.4">y</tspan></text></svg>