<?xml version="1.0" encoding="utf-8"?>
<!-- Generator: Adobe Illustrator 25.2.0, SVG Export Plug-In . SVG Version: 6.00 Build 0)  -->
<svg version="1.1"
	 id="svg246" inkscape:version="1.0 (4035a4f, 2020-05-01)" xmlns:cc="http://creativecommons.org/ns#" xmlns:dc="http://purl.org/dc/elements/1.1/" xmlns:inkscape="http://www.inkscape.org/namespaces/inkscape" xmlns:rdf="http://www.w3.org/1999/02/22-rdf-syntax-ns#" xmlns:sodipodi="http://sodipodi.sourceforge.net/DTD/sodipodi-0.dtd" xmlns:svg="http://www.w3.org/2000/svg"
	 xmlns="http://www.w3.org/2000/svg" xmlns:xlink="http://www.w3.org/1999/xlink" x="0px" y="0px" viewBox="0 0 748.7 196"
	 style="enable-background:new 0 0 748.7 196;" xml:space="preserve">
<style type="text/css">
	.st0{fill:none;stroke:#D82727;stroke-miterlimit:10;}
	.st1{fill:none;stroke:#E73A23;stroke-miterlimit:10;}
	.st2{fill:#AC1F24;}
	.st3{fill:#E73A23;stroke:#1D1D1B;stroke-miterlimit:10;}
</style>
<g>
	<path class="st2" d="M192.5,51.3V30.6H203c2.2,0,3.8,0.5,4.8,1.6c1,1.1,1.5,2.4,1.5,3.8c0,1-0.3,2-0.9,2.8
		c-0.6,0.8-1.4,1.4-2.6,1.7c2.7,0.6,4,2.2,4,4.8c0,1.5-0.5,2.9-1.4,4.1c-0.9,1.2-3,1.8-6,1.8H192.5z M198.3,38.5h2.9
		c0.7,0,1.3-0.2,1.6-0.6s0.5-0.8,0.5-1.2c0-1.2-0.7-1.7-2.1-1.7h-2.8V38.5z M198.3,46.7h3.1c0.8,0,1.3-0.2,1.7-0.6
		c0.4-0.4,0.5-0.8,0.5-1.3c0-0.5-0.2-0.9-0.5-1.3c-0.3-0.4-1-0.6-1.9-0.6h-2.9V46.7z"/>
	<path d="M227.5,51.3h-2.8l-1.2-3.4H218l-1.1,3.4h-2.2l4.8-14.5h3.2L227.5,51.3z M222.9,45.7l-2.1-6.5l-2.1,6.5H222.9z"/>
	<path d="M242.9,51.3h-2.5l-5.5-9.2c-0.1-0.1-0.2-0.4-0.4-0.7c-0.1-0.1-0.2-0.4-0.4-0.7v10.6H232V36.8h2.9l5.1,8.5
		c0,0.1,0.3,0.6,0.9,1.6V36.8h2.1V51.3z"/>
	<path d="M259.9,43.9v7.4h-1.2l-0.8-1.9c-0.8,1.4-2.1,2.2-3.9,2.2c-2,0-3.4-0.7-4.4-2.2c-1-1.5-1.5-3.2-1.5-5.2
		c0-2.1,0.5-3.8,1.6-5.3c1.1-1.4,2.6-2.2,4.6-2.2c1.5,0,2.7,0.4,3.6,1.3c0.9,0.8,1.5,1.9,1.8,3.2l-2.3,0.4c-0.4-1.8-1.4-2.6-3-2.6
		c-1,0-1.9,0.4-2.5,1.3c-0.6,0.8-1,2.1-1,3.8c0,3.7,1.1,5.5,3.4,5.5c0.9,0,1.6-0.3,2.2-0.9c0.6-0.6,0.9-1.4,0.9-2.4h-3v-2.1H259.9z"
		/>
	<path d="M274.5,51.3h-8.9V36.8h2.7v12.1h6.2V51.3z"/>
	<path d="M290.5,51.3h-2.8l-1.2-3.4H281l-1.1,3.4h-2.2l4.8-14.5h3.2L290.5,51.3z M285.9,45.7l-2.1-6.5l-2.1,6.5H285.9z"/>
	<path d="M295,51.3V36.8h5.3c2,0,3.6,0.7,4.7,2.1c1.2,1.4,1.8,3.1,1.8,5.2c0,2-0.6,3.8-1.8,5.1c-1.2,1.4-3,2.1-5.3,2.1H295z
		 M297.7,49.1h2.2c1.2,0,2.2-0.4,3-1.3s1.2-2.2,1.2-3.9c0-1.4-0.4-2.6-1.1-3.6s-1.6-1.5-2.8-1.5h-2.5V49.1z"/>
	<path d="M321.4,51.3H312V36.8h9.3V39h-6.7v3.9h5.4V45h-5.4v4h6.8V51.3z"/>
	<path d="M325,47.8l2.5-0.5c0.3,1.4,1.5,2.2,3.5,2.2c0.9,0,1.6-0.2,2.1-0.6s0.7-0.8,0.7-1.4c0-0.4-0.1-0.8-0.3-1.1
		c-0.2-0.3-0.7-0.6-1.5-0.8l-2.8-0.7c-0.9-0.2-1.6-0.5-2.1-0.8c-0.5-0.3-0.8-0.8-1.1-1.3c-0.3-0.6-0.4-1.2-0.4-1.8
		c0-1.3,0.5-2.3,1.4-3.1c1-0.8,2.2-1.2,3.7-1.2c1.2,0,2.4,0.3,3.3,0.8s1.6,1.3,1.9,2.3l-2.5,0.6c-0.4-1.1-1.3-1.6-2.7-1.6
		c-0.8,0-1.4,0.2-1.9,0.5c-0.4,0.3-0.6,0.8-0.6,1.3c0,0.8,0.7,1.4,2,1.7l2.5,0.6c1.5,0.4,2.5,0.9,3,1.7c0.5,0.7,0.8,1.5,0.8,2.4
		c0,1.4-0.5,2.5-1.6,3.4c-1.1,0.8-2.5,1.2-4.2,1.2c-1.4,0-2.7-0.3-3.8-0.9S325.3,49.1,325,47.8z"/>
	<path d="M352.4,51.3h-2.6V45h-5.5v6.3h-2.6V36.8h2.6v5.9h5.5v-5.9h2.6V51.3z"/>
	<path class="st2" d="M223.6,67.8v13.7c0,2.6-0.8,4.5-2.3,5.6c-1.5,1.1-3.5,1.7-6,1.7c-2.6,0-4.7-0.5-6.3-1.6s-2.4-2.9-2.4-5.3v-14
		h6.4v13.3c0,1,0.2,1.7,0.6,2.2s1.1,0.7,2,0.7c0.8,0,1.4-0.2,1.9-0.5c0.5-0.3,0.8-0.7,0.9-1.1c0.1-0.4,0.1-1.2,0.1-2.4V67.8H223.6z"
		/>
	<path d="M241.6,88.5h-2.5l-5.5-9.2c-0.1-0.1-0.2-0.4-0.4-0.7c-0.1-0.1-0.2-0.4-0.4-0.7v10.6h-2.1V74h2.9l5.1,8.5
		c0,0.1,0.3,0.6,0.9,1.6V74h2.1V88.5z"/>
	<path d="M250.2,88.5h-2.6V74h2.6V88.5z"/>
	<path d="M261.7,88.5h-2.6L254.6,74h2.8l3.3,11.1l3.4-11.1h2.2L261.7,88.5z"/>
	<path d="M280.1,88.5h-9.4V74h9.3v2.2h-6.7v3.9h5.4v2.1h-5.4v4h6.8V88.5z"/>
	<path d="M296.4,88.5h-2.8l-2.2-5.9h-3.7v5.9h-2.6V74h6.3c1.7,0,3,0.4,3.8,1.2c0.8,0.8,1.2,1.8,1.2,3.1c0,1.9-0.9,3.1-2.6,3.8
		L296.4,88.5z M287.7,80.4h3.2c0.9,0,1.6-0.2,2.1-0.6c0.5-0.4,0.7-0.9,0.7-1.6c0-0.6-0.2-1.1-0.7-1.5c-0.5-0.4-1.1-0.6-1.9-0.6h-3.5
		V80.4z"/>
	<path d="M300.3,85l2.5-0.5c0.3,1.4,1.5,2.2,3.5,2.2c0.9,0,1.6-0.2,2.1-0.6s0.7-0.8,0.7-1.4c0-0.4-0.1-0.8-0.3-1.1
		c-0.2-0.3-0.7-0.6-1.5-0.8l-2.8-0.7c-0.9-0.2-1.6-0.5-2.1-0.8c-0.5-0.3-0.8-0.8-1.1-1.3c-0.3-0.6-0.4-1.2-0.4-1.8
		c0-1.3,0.5-2.3,1.4-3.1c1-0.8,2.2-1.2,3.7-1.2c1.2,0,2.4,0.3,3.3,0.8s1.6,1.3,1.9,2.3l-2.5,0.6c-0.4-1.1-1.3-1.6-2.7-1.6
		c-0.8,0-1.4,0.2-1.9,0.5c-0.4,0.3-0.6,0.8-0.6,1.3c0,0.8,0.7,1.4,2,1.7l2.5,0.6c1.5,0.4,2.5,0.9,3,1.7c0.5,0.7,0.8,1.5,0.8,2.4
		c0,1.4-0.5,2.5-1.6,3.4c-1.1,0.8-2.5,1.2-4.2,1.2c-1.4,0-2.7-0.3-3.8-0.9S300.7,86.3,300.3,85z"/>
	<path d="M319.6,88.5H317V74h2.6V88.5z"/>
	<path d="M330.6,88.5h-2.8V76.2H324V74h10.5v2.2h-3.8V88.5z"/>
	<path d="M345.5,88.5h-2.8v-6.1l-4.9-8.4h3.2l3.4,6l3.3-6h2.5l-4.7,8.4V88.5z"/>
	<path d="M371.3,88.7c-1.9,0-3.4-0.7-4.5-2.2c-1.1-1.4-1.6-3.2-1.6-5.3c0-2.1,0.6-3.9,1.7-5.3c1.1-1.4,2.6-2.1,4.5-2.1
		c1.9,0,3.4,0.7,4.5,2.1c1.1,1.4,1.6,3.2,1.6,5.3c0,2.2-0.6,4-1.7,5.4S373.2,88.7,371.3,88.7z M371.4,86.6c0.9,0,1.7-0.4,2.4-1.2
		c0.6-0.8,1-2.2,1-4.2c0-1.7-0.3-3-0.8-3.9c-0.5-0.9-1.4-1.4-2.5-1.4c-2.2,0-3.3,1.8-3.3,5.4c0,1.7,0.3,3.1,0.9,4
		C369.5,86.1,370.3,86.6,371.4,86.6z"/>
	<path d="M385.4,88.5h-2.7V74h9.1v2.2h-6.5v4h5.1v2.2h-5.1V88.5z"/>
	<path class="st2" d="M222.4,120.7v4.9h-15.5V105h15.5v4.8H213v3h7.5v4.6H213v3.4H222.4z"/>
	<path d="M238.7,125.7h-2.5l-5.5-9.2c-0.1-0.1-0.2-0.4-0.4-0.7c-0.1-0.1-0.2-0.4-0.4-0.7v10.6h-2.1v-14.5h2.9l5.1,8.5
		c0,0.1,0.3,0.6,0.9,1.6v-10.1h2.1V125.7z"/>
	<path d="M255,118.3v7.4h-1.2l-0.8-2c-0.8,1.4-2.1,2.2-3.9,2.2c-2,0-3.4-0.7-4.4-2.2c-1-1.5-1.5-3.2-1.5-5.2c0-2.1,0.5-3.8,1.6-5.3
		c1.1-1.4,2.6-2.2,4.6-2.2c1.5,0,2.7,0.4,3.6,1.3c0.9,0.8,1.5,1.9,1.8,3.2l-2.3,0.4c-0.4-1.8-1.4-2.6-3-2.6c-1,0-1.9,0.4-2.5,1.2
		c-0.6,0.8-1,2.1-1,3.8c0,3.7,1.1,5.5,3.4,5.5c0.9,0,1.6-0.3,2.2-0.9c0.6-0.6,0.9-1.4,0.9-2.4h-3v-2.1H255z"/>
	<path d="M262.8,125.7h-2.6v-14.5h2.6V125.7z"/>
	<path d="M279,125.7h-2.5l-5.5-9.2c-0.1-0.1-0.2-0.4-0.4-0.7c-0.1-0.1-0.2-0.4-0.4-0.7v10.6h-2.1v-14.5h2.9l5.1,8.5
		c0,0.1,0.3,0.6,0.9,1.6v-10.1h2.1V125.7z"/>
	<path d="M293.8,125.7h-9.4v-14.5h9.3v2.2H287v3.9h5.4v2.1H287v4h6.8V125.7z"/>
	<path d="M307.6,125.7h-9.4v-14.5h9.3v2.2h-6.7v3.9h5.4v2.1h-5.4v4h6.8V125.7z"/>
	<path d="M323.3,125.7h-2.8l-2.2-5.9h-3.7v5.9H312v-14.5h6.3c1.7,0,3,0.4,3.8,1.2c0.8,0.8,1.2,1.8,1.2,3.1c0,1.9-0.9,3.1-2.6,3.8
		L323.3,125.7z M314.6,117.6h3.2c0.9,0,1.6-0.2,2.1-0.6s0.7-0.9,0.7-1.6c0-0.6-0.2-1.1-0.7-1.5c-0.5-0.4-1.1-0.6-1.9-0.6h-3.5V117.6
		z"/>
	<path d="M330.7,125.7h-2.6v-14.5h2.6V125.7z"/>
	<path d="M347,125.7h-2.5l-5.5-9.2c-0.1-0.1-0.2-0.4-0.4-0.7c-0.1-0.1-0.2-0.4-0.4-0.7v10.6h-2.1v-14.5h2.9l5.1,8.5
		c0,0.1,0.3,0.6,0.9,1.6v-10.1h2.1V125.7z"/>
	<path d="M363.3,118.3v7.4h-1.2l-0.8-2c-0.8,1.4-2.1,2.2-3.9,2.2c-2,0-3.4-0.7-4.4-2.2c-1-1.5-1.5-3.2-1.5-5.2
		c0-2.1,0.5-3.8,1.6-5.3c1.1-1.4,2.6-2.2,4.6-2.2c1.5,0,2.7,0.4,3.6,1.3c0.9,0.8,1.5,1.9,1.8,3.2l-2.3,0.4c-0.4-1.8-1.4-2.6-3-2.6
		c-1,0-1.9,0.4-2.5,1.2c-0.6,0.8-1,2.1-1,3.8c0,3.7,1.1,5.5,3.4,5.5c0.9,0,1.6-0.3,2.2-0.9c0.6-0.6,0.9-1.4,0.9-2.4h-3v-2.1H363.3z"
		/>
	<path d="M389.6,117.6l2,0.4c-0.3,1.9-1.1,3.6-2.4,5c0.5,0.5,0.8,0.8,1,0.9s0.5,0.2,0.8,0.2c0.1,0,0.3,0,0.6,0v1.9l-0.9,0
		c-0.6,0-1.1-0.1-1.5-0.3s-0.9-0.6-1.5-1.2c-1.3,1-2.8,1.4-4.4,1.4c-1.5,0-2.7-0.4-3.6-1.2c-0.9-0.8-1.4-1.8-1.4-3
		c0-0.7,0.2-1.5,0.7-2.1c0.4-0.7,1.4-1.3,2.8-2c-0.8-0.9-1.2-1.8-1.2-2.5c0-0.9,0.3-1.6,1-2.1c0.7-0.5,1.5-0.8,2.5-0.8
		c1,0,1.9,0.3,2.6,0.8c0.7,0.5,1,1.2,1,2.1c0,0.6-0.2,1.2-0.7,1.8s-1.1,1-1.9,1.4l2.9,3.3C388.9,120.4,389.4,119.1,389.6,117.6z
		 M383,119.1c-1.3,0.6-2,1.4-2,2.5c0,0.7,0.3,1.3,0.8,1.7c0.5,0.4,1.2,0.6,2,0.6c1,0,1.9-0.3,2.7-0.9L383,119.1z M384,116.8
		c1.1-0.5,1.7-1.1,1.7-1.8c0-0.4-0.1-0.7-0.4-0.9s-0.6-0.3-1-0.3c-0.4,0-0.7,0.1-1,0.3c-0.3,0.2-0.4,0.5-0.4,0.9
		C382.9,115.6,383.3,116.2,384,116.8z"/>
	<path class="st2" d="M201,147.2v15.7h-6v-15.7h-4.3v-5h14.6v5H201z"/>
	<path d="M220.2,162.9h-9.4v-14.5h9.3v2.2h-6.7v3.9h5.4v2.1h-5.4v4h6.8V162.9z"/>
	<path d="M233.3,157.8l2.4,0.3c-0.2,1.4-0.7,2.6-1.7,3.6c-1,0.9-2.2,1.4-3.8,1.4c-1.3,0-2.4-0.3-3.2-1c-0.8-0.7-1.5-1.6-1.9-2.7
		s-0.7-2.4-0.7-3.8c0-2.2,0.5-4,1.6-5.4c1-1.4,2.5-2.1,4.3-2.1c1.4,0,2.6,0.4,3.6,1.3c1,0.9,1.6,2.1,1.8,3.8l-2.4,0.3
		c-0.4-2.2-1.4-3.3-2.9-3.3c-1,0-1.7,0.5-2.3,1.4c-0.5,0.9-0.8,2.2-0.8,3.9c0,1.8,0.3,3.1,0.9,4s1.3,1.3,2.3,1.3
		c0.8,0,1.4-0.3,1.9-0.9C232.9,159.4,233.2,158.7,233.3,157.8z"/>
	<path d="M251.3,162.9h-2.6v-6.3h-5.5v6.3h-2.6v-14.5h2.6v5.9h5.5v-5.9h2.6V162.9z"/>
	<path d="M268.2,162.9h-2.5l-5.5-9.2c-0.1-0.1-0.2-0.4-0.4-0.7c-0.1-0.1-0.2-0.4-0.4-0.7v10.6h-2.1v-14.5h2.9l5.1,8.5
		c0,0.1,0.3,0.6,0.9,1.6v-10.1h2.1V162.9z"/>
	<path d="M279.5,163.1c-1.9,0-3.4-0.7-4.5-2.2c-1.1-1.4-1.6-3.2-1.6-5.3c0-2.1,0.6-3.9,1.7-5.3s2.6-2.1,4.5-2.1
		c1.9,0,3.4,0.7,4.5,2.1c1.1,1.4,1.6,3.2,1.6,5.3c0,2.2-0.6,4-1.7,5.4C282.8,162.4,281.3,163.1,279.5,163.1z M279.5,161
		c0.9,0,1.7-0.4,2.4-1.2c0.6-0.8,1-2.2,1-4.2c0-1.7-0.3-3-0.8-3.9c-0.5-0.9-1.4-1.4-2.5-1.4c-2.2,0-3.3,1.8-3.3,5.4
		c0,1.7,0.3,3.1,0.9,4C277.6,160.5,278.4,161,279.5,161z"/>
	<path d="M299.8,162.9h-8.9v-14.5h2.7v12.1h6.2V162.9z"/>
	<path d="M309.4,163.1c-1.9,0-3.4-0.7-4.5-2.2c-1.1-1.4-1.6-3.2-1.6-5.3c0-2.1,0.6-3.9,1.7-5.3s2.6-2.1,4.5-2.1
		c1.9,0,3.4,0.7,4.5,2.1c1.1,1.4,1.6,3.2,1.6,5.3c0,2.2-0.6,4-1.7,5.4C312.8,162.4,311.3,163.1,309.4,163.1z M309.4,161
		c0.9,0,1.7-0.4,2.4-1.2c0.6-0.8,1-2.2,1-4.2c0-1.7-0.3-3-0.8-3.9c-0.5-0.9-1.4-1.4-2.5-1.4c-2.2,0-3.3,1.8-3.3,5.4
		c0,1.7,0.3,3.1,0.9,4C307.6,160.5,308.4,161,309.4,161z"/>
	<path d="M331.8,155.5v7.4h-1.2l-0.8-2c-0.8,1.4-2.1,2.2-3.9,2.2c-2,0-3.4-0.7-4.4-2.2c-1-1.5-1.5-3.2-1.5-5.2
		c0-2.1,0.5-3.8,1.6-5.3c1.1-1.4,2.6-2.2,4.6-2.2c1.5,0,2.7,0.4,3.6,1.3c0.9,0.8,1.5,1.9,1.8,3.2l-2.3,0.4c-0.4-1.8-1.4-2.6-3-2.6
		c-1,0-1.9,0.4-2.5,1.2c-0.6,0.8-1,2.1-1,3.8c0,3.7,1.1,5.5,3.4,5.5c0.9,0,1.6-0.3,2.2-0.9c0.6-0.6,0.9-1.4,0.9-2.4h-3v-2.1H331.8z"
		/>
	<path d="M342.6,162.9h-2.8v-6.1l-4.9-8.4h3.2l3.4,6l3.3-6h2.5l-4.7,8.4V162.9z"/>
</g>
<g>
	<path id="path1156_7_" class="st2" d="M34.8,96.4c-0.4,0-0.6,0.3-0.6,0.6c0,0.4,0.3,0.6,0.6,0.6h132c0.4,0,0.6-0.3,0.6-0.6
		c0-0.4-0.3-0.6-0.6-0.6H34.8z"/>
	<path id="path1160_7_" class="st2" d="M35.1,89.8c-0.4,0-0.6,0.3-0.6,0.6c0,0.4,0.3,0.6,0.6,0.6h131.6c0.4,0,0.6-0.3,0.6-0.6
		c0-0.4-0.3-0.6-0.6-0.6H35.1z"/>
	<path id="path1164_7_" class="st2" d="M35.9,83.4c-0.4,0-0.6,0.3-0.6,0.6s0.3,0.6,0.6,0.6h129.8c0.4,0,0.6-0.3,0.6-0.6
		s-0.3-0.6-0.6-0.6H35.9z"/>
	<path id="path1168_7_" class="st2" d="M37.5,76.9c-0.4,0-0.6,0.3-0.6,0.6s0.3,0.6,0.6,0.6h126.7c0.4,0,0.6-0.3,0.6-0.6
		s-0.3-0.6-0.6-0.6H37.5z"/>
	<path id="path1172_7_" class="st2" d="M39.8,70.3c-0.4,0-0.6,0.3-0.6,0.6c0,0.4,0.3,0.6,0.6,0.6h122c0.4,0,0.6-0.3,0.6-0.6
		c0-0.4-0.3-0.6-0.6-0.6H39.8z"/>
	<path id="path1176_7_" class="st2" d="M42.9,63.8c-0.4,0-0.6,0.3-0.6,0.6c0,0.4,0.3,0.6,0.6,0.6h115.7c0.4,0,0.6-0.3,0.6-0.6
		c0-0.4-0.3-0.6-0.6-0.6H42.9z"/>
	<path id="path1180_7_" class="st2" d="M53.7,57.4c-0.4,0-0.6,0.3-0.6,0.6c0,0.4,0.3,0.6,0.6,0.6h100.9c0.4,0,0.6-0.3,0.6-0.6
		c0-0.4-0.3-0.6-0.6-0.6H53.7z"/>
	<path id="path1184_7_" class="st2" d="M53.7,50.9c-0.4,0-0.6,0.3-0.6,0.6c0,0.4,0.3,0.6,0.6,0.6l0,0h95.7c0.4,0,0.6-0.3,0.6-0.6
		l0,0c0-0.4-0.3-0.6-0.6-0.6H53.7z"/>
	<path id="path1188_7_" class="st2" d="M59.3,44.3c-0.4,0-0.6,0.3-0.6,0.6c0,0.4,0.3,0.6,0.6,0.6l0,0h83.1c0.4,0,0.6-0.3,0.6-0.6
		l0,0c0-0.4-0.3-0.6-0.6-0.6H59.3z"/>
	<path id="path1192_7_" class="st2" d="M68.9,37.8c-0.4,0-0.6,0.3-0.6,0.6c0,0.4,0.3,0.6,0.6,0.6h63.7c0.4,0,0.6-0.3,0.6-0.6
		c0-0.4-0.3-0.6-0.6-0.6H68.9z"/>
	<path id="path1196_7_" class="st2" d="M157.9,62.4c-0.4,0-0.6,0.3-0.6,0.6v34c0,0.4,0.3,0.6,0.6,0.6c0.4,0,0.6-0.3,0.6-0.6V63.2
		C158.5,62.8,158.3,62.4,157.9,62.4z"/>
	<path id="path1200_7_" class="st2" d="M151.4,53.2c-0.4,0-0.6,0.3-0.6,0.6v43.3c0,0.4,0.3,0.6,0.6,0.6s0.6-0.3,0.6-0.6V53.9
		C152.1,53.5,151.8,53.2,151.4,53.2z"/>
	<path id="path1204_7_" class="st2" d="M144.8,46.4c-0.4,0-0.6,0.3-0.6,0.6v50c0,0.4,0.3,0.6,0.6,0.6s0.6-0.3,0.6-0.6v-50
		C145.5,46.7,145.2,46.4,144.8,46.4z"/>
	<path id="path1208_7_" class="st2" d="M138.4,41.4c-0.4,0-0.6,0.3-0.6,0.6l0,0v54.7c0,0.4,0.3,0.6,0.6,0.6l0,0
		c0.4,0,0.6-0.3,0.6-0.6V42C139,41.6,138.7,41.4,138.4,41.4z"/>
	<path id="path1212_7_" class="st2" d="M131.9,37.3c-0.4,0-0.6,0.3-0.6,0.6l0,0v59c0,0.4,0.3,0.6,0.6,0.6c0.4,0,0.6-0.3,0.6-0.6v-59
		C132.5,37.6,132.3,37.3,131.9,37.3L131.9,37.3z"/>
	<path id="path1216_7_" class="st2" d="M125.4,34.3c-0.4,0-0.6,0.3-0.6,0.6v62.2c0,0.4,0.3,0.6,0.6,0.6s0.6-0.3,0.6-0.6V34.9
		C126.1,34.5,125.8,34.3,125.4,34.3z"/>
	<path id="path1220_7_" class="st2" d="M118.8,32c-0.4,0-0.6,0.3-0.6,0.6V97c0,0.4,0.3,0.6,0.6,0.6c0.4,0,0.6-0.3,0.6-0.6V32.7
		C119.5,32.4,119.2,32,118.8,32z"/>
	<path id="path1224_7_" class="st2" d="M112.3,30.6c-0.4,0-0.6,0.3-0.6,0.6v65.9c0,0.4,0.3,0.6,0.6,0.6c0.4,0,0.6-0.3,0.6-0.6V31.2
		C113,30.8,112.7,30.6,112.3,30.6z"/>
	<path id="path1228_7_" class="st2" d="M105.9,29.6c-0.4,0-0.6,0.3-0.6,0.6v66.9c0,0.4,0.3,0.6,0.6,0.6s0.6-0.3,0.6-0.6V30.3
		C106.5,29.9,106.1,29.6,105.9,29.6z"/>
	<path id="path1232_7_" class="st2" d="M99.3,29.6c-0.4,0-0.6,0.3-0.6,0.6v66.9c0,0.4,0.3,0.6,0.6,0.6c0.4,0,0.6-0.3,0.6-0.6V30.3
		C99.9,29.9,99.7,29.6,99.3,29.6z"/>
	<path id="path1236_7_" class="st2" d="M92.8,30.1c-0.4,0-0.6,0.3-0.6,0.6v66.4c0,0.4,0.3,0.6,0.6,0.6s0.6-0.3,0.6-0.6V30.7
		C93.4,30.3,93.1,30.1,92.8,30.1z"/>
	<path id="path1240_7_" class="st2" d="M86.2,31.3c-0.4,0-0.6,0.3-0.6,0.6v65.1c0,0.4,0.3,0.6,0.6,0.6c0.4,0,0.6-0.3,0.6-0.6V32
		C87,31.6,86.6,31.3,86.2,31.3z"/>
	<path id="path1244_7_" class="st2" d="M79.7,33.1c-0.4,0-0.6,0.3-0.6,0.6v63.3c0,0.4,0.3,0.6,0.6,0.6c0.4,0,0.6-0.3,0.6-0.6V33.7
		C80.4,33.4,80.1,33.1,79.7,33.1z"/>
	<path id="path1248_7_" class="st2" d="M73.1,35.7c-0.4,0-0.6,0.3-0.6,0.6v60.8c0,0.4,0.3,0.6,0.6,0.6c0.4,0,0.6-0.3,0.6-0.6V36.3
		C73.9,35.9,73.5,35.7,73.1,35.7z"/>
	<path id="path1252_7_" class="st2" d="M53.7,49.4c-0.4,0-0.6,0.3-0.6,0.6v47.1c0,0.4,0.3,0.6,0.6,0.6c0.4,0,0.6-0.3,0.6-0.6v-47
		C54.3,49.7,54.1,49.4,53.7,49.4z"/>
	<path id="path1256_7_" class="st2" d="M47.1,56.3c-0.4,0-0.6,0.3-0.6,0.6v40.1c0,0.4,0.3,0.6,0.6,0.6c0.4,0,0.6-0.3,0.6-0.6V57
		C47.9,56.6,47.5,56.3,47.1,56.3z"/>
	<path id="path1260_7_" class="st2" d="M40.6,70.3c-0.4,0-0.6,0.3-0.6,0.6v26.1c0,0.4,0.3,0.6,0.6,0.6c0.4,0,0.6-0.3,0.6-0.6V70.9
		C41.3,70.6,41,70.3,40.6,70.3z"/>
	<path id="path1264_7_" class="st2" d="M66.7,39.1c-0.4,0-0.6,0.3-0.6,0.6l0,0v57.4c0,0.4,0.3,0.6,0.6,0.6s0.6-0.3,0.6-0.6V39.7
		C67.3,39.5,67,39.1,66.7,39.1L66.7,39.1z"/>
	<path id="path1268_7_" class="st2" d="M60.2,43.6c-0.4,0-0.6,0.3-0.6,0.6v52.8c0,0.4,0.3,0.6,0.6,0.6c0.4,0,0.6-0.3,0.6-0.6V44.3
		C60.8,43.9,60.6,43.6,60.2,43.6z"/>
	<path id="path1272_7_" class="st2" d="M100.8,155.3c-0.4,0-0.6,0.3-0.6,0.6c0,0.4,0.3,0.6,0.6,0.6h28.3c0.4,0,0.6-0.3,0.6-0.6
		c0-0.4-0.3-0.6-0.6-0.6H100.8z"/>
	<path id="path1276_7_" class="st2" d="M100.8,148.9c-0.4,0-0.6,0.3-0.6,0.6c0,0.4,0.3,0.6,0.6,0.6h39.1c0.4,0,0.6-0.3,0.6-0.6
		c0-0.4-0.3-0.6-0.6-0.6H100.8z"/>
	<path id="path1280_7_" class="st2" d="M100.9,142.3c-0.4,0-0.6,0.3-0.6,0.6s0.3,0.6,0.6,0.6h46.7c0.4,0,0.6-0.3,0.6-0.6
		s-0.3-0.6-0.6-0.6H100.9z"/>
	<path id="path1284_7_" class="st2" d="M100.9,135.8c-0.4,0-0.6,0.3-0.6,0.6s0.3,0.6,0.6,0.6h52.4c0.4,0,0.6-0.3,0.6-0.6
		s-0.3-0.6-0.6-0.6H100.9z"/>
	<path id="path1288_7_" class="st2" d="M55.1,129.3c-0.4,0-0.6,0.3-0.6,0.6s0.3,0.6,0.6,0.6h102.5c0.4,0,0.6-0.3,0.6-0.6
		s-0.3-0.6-0.6-0.6H55.1z"/>
	<path id="path1292_7_" class="st2" d="M40.8,122.8c-0.4,0-0.6,0.3-0.6,0.6l0,0c0,0.4,0.3,0.6,0.6,0.6h120.3c0.4,0,0.6-0.3,0.6-0.6
		c0-0.4-0.3-0.6-0.6-0.6l0,0H40.8z"/>
	<path id="path1296_7_" class="st2" d="M153,122.8c-0.4,0-0.6,0.3-0.6,0.6l0,0v13.3c0,0.4,0.3,0.6,0.6,0.6s0.6-0.3,0.6-0.6v-13.3
		C153.6,123.1,153.3,122.8,153,122.8L153,122.8z"/>
	<path id="path1300_7_" class="st2" d="M146.5,122.8c-0.4,0-0.6,0.3-0.6,0.6l0,0V144c0,0.4,0.3,0.6,0.6,0.6c0.4,0,0.6-0.3,0.6-0.6
		v-20.6C147.1,123.1,146.9,122.8,146.5,122.8L146.5,122.8z"/>
	<path id="path1304_7_" class="st2" d="M139.9,122.8c-0.4,0-0.6,0.3-0.6,0.6l0,0v26c0,0.4,0.3,0.6,0.6,0.6s0.6-0.3,0.6-0.6v-26
		C140.6,123.1,140.3,122.8,139.9,122.8L139.9,122.8z"/>
	<path id="path1308_7_" class="st2" d="M133.4,122.8c-0.4,0-0.6,0.3-0.6,0.6l0,0v30.3c0,0.4,0.3,0.6,0.6,0.6s0.6-0.3,0.6-0.6v-30.3
		C134,123.1,133.8,122.8,133.4,122.8L133.4,122.8z"/>
	<path id="path1312_7_" class="st2" d="M126.9,122.8c-0.4,0-0.6,0.3-0.6,0.6l0,0V157c0,0.4,0.3,0.6,0.6,0.6s0.6-0.3,0.6-0.6v-33.5
		C127.6,123.1,127.3,122.8,126.9,122.8L126.9,122.8z"/>
	<path id="path1316_7_" class="st2" d="M120.5,122.8c-0.4,0-0.6,0.3-0.6,0.6l0,0v35.9c0,0.4,0.3,0.6,0.6,0.6c0.4,0,0.6-0.3,0.6-0.6
		v-35.9C121.1,123.1,120.9,122.8,120.5,122.8L120.5,122.8z"/>
	<path id="path1320_7_" class="st2" d="M113.9,122.8c-0.4,0-0.6,0.3-0.6,0.6l0,0V161c0,0.4,0.3,0.6,0.6,0.6c0.4,0,0.6-0.3,0.6-0.6
		v-37.6C114.5,123.1,114.3,122.8,113.9,122.8L113.9,122.8z"/>
	<path id="path1324_7_" class="st2" d="M107.4,122.8c-0.4,0-0.6,0.3-0.6,0.6l0,0v38.5c0,0.4,0.3,0.6,0.6,0.6s0.6-0.3,0.6-0.6v-38.5
		C108,123.1,107.8,122.8,107.4,122.8L107.4,122.8z"/>
	<path id="path1328_7_" class="st2" d="M40.6,96.4c-0.4,0-0.6,0.3-0.6,0.6c0,0.4,0.3,0.6,0.6,0.6h12.9c0.4,0,0.6-0.3,0.6-0.6
		c0-0.4-0.3-0.6-0.6-0.6H40.6z"/>
	<path id="path101_7_" class="st2" d="M103.7,183.8l2.3-8.6c1.8-0.1,3.6-0.3,5.2-0.5l3.8,8c0.9-0.1,1.9-0.4,2.8-0.5
		c0.9-0.1,1.9-0.4,2.8-0.6l0.5-8.9c1.8-0.5,3.4-1,5.1-1.5l5.3,7.1c0.9-0.4,1.8-0.6,2.7-1.1c0.9-0.4,1.8-0.6,2.7-1.1l-1.3-8.9
		c1.6-0.6,3.2-1.6,4.7-2.5l6.7,6.1l2.4-1.5c0.8-0.5,1.5-1.1,2.3-1.6l-3-8.4c1.4-1.1,2.8-2.2,4.1-3.4l7.7,4.6c0.6-0.6,1.3-1.3,2-1.9
		c0.6-0.6,1.4-1.3,1.9-2l-4.6-7.7c1.3-1.3,2.3-2.7,3.4-4.1l8.4,3c0.5-0.8,1.1-1.6,1.6-2.3c0.5-0.8,1-1.6,1.5-2.4l-6-6.7
		c0.9-1.5,1.8-3,2.5-4.7l8.9,1.3c0.4-0.9,0.8-1.8,1.1-2.7c0.4-0.9,0.6-1.8,1.1-2.7l-7.1-5.3c0.6-1.6,1.1-3.3,1.5-5.1l8.9-0.5
		c0.1-0.9,0.4-1.9,0.5-2.8c0.1-1,0.4-1.9,0.5-2.8l-8-3.8c0.3-1.8,0.4-3.4,0.5-5.2l8.6-2.2c0-0.9,0-1.9,0-2.8c0-1,0-1.9,0-2.9
		l-8.6-2.2c-0.1-1.8-0.3-3.6-0.5-5.2l8-3.8c-0.1-0.9-0.4-1.9-0.5-2.8c-0.1-1-0.4-1.9-0.5-2.8l-8.9-0.5c-0.5-1.6-1-3.4-1.5-5.1
		l7.1-5.3c-0.4-0.9-0.6-1.8-1.1-2.7c-0.4-0.9-0.6-1.8-1.1-2.5l-8.8,1.1c-0.6-1.5-1.6-3.2-2.5-4.7l6-6.6c-0.5-0.8-1-1.6-1.5-2.4
		c-0.5-0.8-1.1-1.6-1.6-2.3l-8.4,2.9c-1.1-1.4-2.2-2.8-3.4-4.1l4.6-7.7c-0.6-0.6-1.3-1.3-1.9-2c-0.6-0.6-1.3-1.3-2-1.9l-7.7,4.6
		c-1.3-1.1-2.7-2.3-4.1-3.4l3-8.4c-0.8-0.5-1.6-1.1-2.3-1.6c-0.8-0.5-1.6-1.1-2.4-1.5l-6.7,6.1c-1.5-0.9-3-1.8-4.7-2.5l1.3-8.8
		c-0.9-0.4-1.8-0.8-2.7-1.1c-1-0.3-1.9-0.5-2.8-0.9l-5.3,7.1c-1.6-0.5-3.3-1.1-5.1-1.5l-0.5-8.9c-0.9-0.3-1.9-0.4-2.8-0.6
		c-1-0.1-1.9-0.4-2.8-0.5l-3.8,8c-1.8-0.3-3.4-0.4-5.2-0.5l-2.3-8.6c-1-0.1-1.9-0.1-2.9-0.1s-1.9,0-2.9,0l-2.2,8.6
		c-1.8,0.1-3.6,0.3-5.2,0.5l-3.8-8c-1,0.1-1.9,0.4-2.8,0.5c-1,0.1-1.9,0.4-2.8,0.6l0,0l-0.5,8.9c-1.6,0.5-3.3,1-5.1,1.5l-5.3-7.2
		c-0.9,0.4-1.8,0.6-2.5,1.1c-0.9,0.4-1.8,0.8-2.7,1.1l1.3,8.8c-1.5,0.8-3.2,1.6-4.7,2.5L55,23c-0.8,0.5-1.6,1-2.4,1.5
		c-0.8,0.5-1.6,1-2.3,1.6l2.9,8.4c-1.4,1.1-2.8,2.2-4.1,3.3l-7.7-4.6c-0.6,0.6-1.3,1.3-2,1.9c-0.6,0.6-1.3,1.4-1.9,2l4.6,7.7
		c-1.1,1.4-2.3,2.7-3.4,4.1l-8.4-2.9c-0.5,0.6-1.1,1.5-1.6,2.3s-1.1,1.5-1.5,2.4l6.1,6.6c-0.9,1.5-1.8,3-2.5,4.7l-8.8-1.3
		c-0.4,0.9-0.8,1.8-1.1,2.7c-0.4,0.9-1.1,2.5-1.1,2.5l7.1,5.3c-0.5,1.8-1.1,3.4-1.5,5.1l-8.9,0.5c-0.3,1-0.4,1.9-0.6,2.8
		c0,1-0.4,2.9-0.4,2.9l8.1,3.8c-0.3,1.8-0.4,3.6-0.5,5.2L14.2,94c0,0.9,0,1.9,0,2.9v2.8l8.6,2.3c0.1,1.8,0.3,3.6,0.5,5.2l-8,3.8
		c0.1,0.9,0.4,1.9,0.5,2.8c0.1,0.9,0.4,1.9,0.6,2.8l8.9,0.5c0.5,1.8,1,3.4,1.5,5.1l-7.2,5.3c0.4,0.9,0.6,1.8,1.1,2.7
		c0.4,0.9,1.1,2.7,1.1,2.7l8.9-1.3c0.8,1.6,1.6,3.2,2.5,4.7l-6.1,6.7c0.5,0.8,1,1.5,1.5,2.4c0.5,0.8,1.5,2.3,1.5,2.3l8.5-3
		c1.1,1.4,2.2,2.8,3.3,4.1l-4.6,7.7c0.6,0.6,1.3,1.3,1.9,2c0.6,0.6,1.4,1.4,2,1.9l7.7-4.6c1.4,1.3,2.7,2.3,4.1,3.4l-3,8.4
		c0.6,0.5,1.5,1.1,2.3,1.6c0.8,0.5,1.5,1,2.4,1.5l6.6-5.8c1.5,0.9,3,1.8,4.7,2.5l-1.1,8.9c0.9,0.4,1.8,0.6,2.7,1.1
		c0.9,0.4,1.8,0.6,2.5,1.1l5.3-7.1c1.8,0.6,3.4,1.1,5.1,1.5l0.5,8.9c1,0.3,1.9,0.4,2.8,0.6c0.9,0.1,1.9,0.4,2.8,0.5l3.8-8
		c1.8,0.3,3.6,0.4,5.2,0.5l2.2,8.6 M53.7,97.7v-47C65.6,38.6,82.4,31,100.9,31c36.6,0,66,29.6,66,66.1c0,36.4-29.6,66-66,66l0,0v-39
		l0,0H81.3l0,0v12.9l0,0h-6.5v-12.9H61.7l0,0v13.1l0,0h-6.5l0,0V124l0,0H40.8l0,0c-3.7-8.2-5.8-17.5-5.8-27.2
		c0-14.3,4.6-27.7,12.3-38.5v13.2h-6.5v26L53.7,97.7z"/>
	<g id="g1334_7_" transform="translate(1.8466585,0.7386893)">
		<path id="path1336_7_" class="st2" d="M64.9,76.8h-6.5v19.5h12.9V83.3h-6.5C64.9,83.3,64.9,76.8,64.9,76.8z"/>
		<path id="path1338_7_" class="st2" d="M58.3,76.5c-0.1,0-0.3,0.1-0.3,0.3v19.5c0,0.1,0.1,0.3,0.3,0.3h12.9c0.1,0,0.3-0.1,0.3-0.3
			V83.3c0-0.1-0.1-0.3-0.3-0.3H65v-6.2c0-0.1-0.1-0.3-0.3-0.3L58.3,76.5L58.3,76.5z M58.7,77.1h6v6.2c0,0.1,0.1,0.3,0.3,0.3h6.2V96
			H58.7C58.7,96,58.7,77.1,58.7,77.1z"/>
	</g>
	<g id="g1340_7_" transform="translate(1.8466585,0.7386893)">
		<path id="path1342_7_" class="st2" d="M90.9,50.8h6.5v45.6H77.9v-52h6.5v19.4h6.5C90.9,63.8,90.9,50.8,90.9,50.8z"/>
		<path id="path1344_7_" class="st2" d="M77.9,44c-0.1,0-0.3,0.1-0.3,0.3v52c0,0.1,0.1,0.3,0.3,0.3h19.5c0.1,0,0.3-0.1,0.3-0.3V50.8
			c0-0.1-0.1-0.3-0.3-0.3H91c-0.1,0-0.3,0.1-0.3,0.3l0,0v12.6h-6V44.2c0-0.1-0.1-0.3-0.3-0.3C84.5,44,77.9,44,77.9,44z M78.2,44.6h6
			v19.2c0,0.1,0.1,0.3,0.3,0.3h6.5c0.1,0,0.3-0.1,0.3-0.3V51.2h6v44.9H78.2V44.6z"/>
	</g>
	<path id="path1348_7_" class="st2" d="M40.8,101.1c-0.4,0-0.6,0.3-0.6,0.6v17.9c0,0.4,0.3,0.6,0.6,0.6h119.6c0.4,0,0.6-0.3,0.6-0.6
		v-17.9c0-0.4-0.3-0.6-0.6-0.6H40.8z M41.4,102.4h118.3V119H41.4V102.4z"/>
	<path id="path1352_7_" class="st2" d="M113.4,100.9l-0.9,0.9v17.9l0.9,0.9h20.1l0.9-0.9v-17.9l-0.9-0.9
		C133.4,100.9,113.4,100.9,113.4,100.9z M114.3,102.5h18.4v16.2h-18.4V102.5z"/>
	<path id="path1356_7_" class="st2" d="M123.4,100.9c-0.5,0-0.9,0.4-0.9,0.9v17.9c0,0.5,0.4,0.9,0.9,0.9c0.5,0,0.9-0.4,0.9-0.9l0,0
		v-17.9C124.3,101.3,123.9,100.9,123.4,100.9L123.4,100.9z"/>
	<path id="path1360_7_" class="st2" d="M49.3,104.7c-0.3,0-0.6,0.1-0.8,0.4l-0.9,1.5h-7.1c-0.5,0-0.9,0.4-0.9,0.9l0,0
		c0,0.5,0.4,0.9,0.9,0.9h7.6c0.3,0,0.6-0.1,0.8-0.4l0.4-0.6l0.4,0.6l1,2c0.3,0.4,0.8,0.6,1.1,0.4c0.1-0.1,0.3-0.3,0.4-0.4l1.1-2
		l0.4-0.6l0.4,0.6l1.1,2c0.3,0.4,0.8,0.5,1.1,0.4c0.1-0.1,0.3-0.3,0.4-0.4l1-2l0.4-0.6l0.4,0.6l1,2c0.3,0.4,0.8,0.6,1.1,0.4
		c0.1-0.1,0.3-0.3,0.4-0.4l0.9-1.6h20.3c0.3,0,0.6-0.1,0.8-0.5l0.3-0.6l0.4,0.6l1.1,2c0.3,0.4,0.8,0.5,1.1,0.4
		c0.1-0.1,0.3-0.3,0.4-0.4l1.1-2l0.4-0.6l0.3,0.6l0,0l1.1,2c0.3,0.4,0.8,0.5,1.1,0.4c0.1-0.1,0.3-0.3,0.4-0.4l1.1-2l0,0l0.3-0.6
		l0.4,0.6l0,0l1.1,2c0.3,0.4,0.8,0.5,1.1,0.4c0.1-0.1,0.3-0.3,0.4-0.4l0.8-1.6h35.4h8.6h2.3h1c0.3,0,0.6-0.1,0.8-0.4l0.4-0.8
		l0.4,0.6l1.1,2c0.3,0.4,0.8,0.5,1.1,0.4c0.1-0.1,0.3-0.3,0.4-0.4l1-2l0.4-0.6l0.4,0.6l0,0l1.1,2c0.3,0.4,0.8,0.5,1.1,0.4
		c0.1-0.1,0.3-0.3,0.4-0.4l1.1-2l0,0l0.4-0.6l0.4,0.6l1,2c0.3,0.4,0.8,0.6,1.1,0.4c0.1-0.1,0.3-0.3,0.4-0.4l0.9-1.6h3.8
		c0.5,0,0.9-0.4,0.9-0.9c0-0.5-0.4-0.9-0.9-0.9l0,0h-4.3c-0.3,0-0.6,0.1-0.8,0.5l-0.4,0.6l-0.3-0.6l0,0l-1.1-2
		c-0.3-0.4-0.8-0.5-1.1-0.3c-0.1,0.1-0.3,0.3-0.4,0.4l-1,2l-0.4,0.8l-0.4-0.8l-1-2c-0.3-0.4-0.8-0.6-1.1-0.4
		c-0.1,0.1-0.3,0.1-0.4,0.4l-1.1,2l0,0l-0.3,0.6l-0.4-0.6l0,0l-1.1-2c-0.3-0.4-0.8-0.5-1.1-0.4c-0.1,0.1-0.3,0.1-0.4,0.4l-0.9,1.6
		h-0.5h-2.9H131H95c-0.3,0-0.6,0.1-0.8,0.5l-0.3,0.6l-0.4-0.6l-1.1-2c-0.3-0.4-0.8-0.5-1.1-0.4c-0.1,0.1-0.3,0.3-0.4,0.4l-1,2
		l-0.4,0.8l-0.4-0.8l-1-2c-0.3-0.4-0.8-0.6-1.1-0.4c-0.1,0.1-0.3,0.3-0.4,0.4l-1.1,2l0,0l-0.3,0.6l-0.4-0.6l0,0l-1-2
		c-0.3-0.4-0.8-0.5-1.1-0.4c-0.1,0.1-0.3,0.3-0.4,0.4l-0.8,1.5H61.2c-0.3,0-0.6,0.1-0.8,0.5l-0.3,0.6l-0.3-0.6l0,0l-1.1-2
		c-0.3-0.4-0.8-0.5-1.1-0.4c-0.1,0.1-0.3,0.1-0.4,0.4l-1.1,2l0,0l-0.4,0.6l-0.4-0.6l0,0l-1.1-2c-0.3-0.4-0.8-0.5-1.1-0.4
		c-0.1,0.1-0.3,0.3-0.4,0.4l-1.1,2l0,0l-0.1,0.6l-0.3-0.6l0,0l-1.1-2C49.8,104.8,49.5,104.7,49.3,104.7L49.3,104.7z"/>
	<path id="path1364_7_" class="st2" d="M63.5,110.7c-0.4,0-0.6,0.1-0.8,0.5l-0.8,1.5H40.5c-0.5,0-0.9,0.4-0.9,0.9l0,0
		c0,0.5,0.4,0.9,0.9,0.9h21.8c0.3,0,0.6-0.1,0.8-0.5l0.3-0.6l0.4,0.6l1.1,2c0.3,0.4,0.8,0.5,1.1,0.4c0.1-0.1,0.3-0.3,0.4-0.4l1.1-2
		l0.4-0.6l0.4,0.6l1.1,2c0.3,0.4,0.8,0.5,1.1,0.4c0.1-0.1,0.3-0.3,0.4-0.4l1.1-2l0.4-0.6l0.3,0.6l0,0l1.1,2c0.3,0.4,0.8,0.5,1.1,0.3
		c0.1-0.1,0.3-0.1,0.4-0.4l0.9-1.5h20.2c0.3,0,0.6-0.1,0.8-0.4l0.4-0.6L98,114l1.1,2c0.3,0.4,0.8,0.5,1.1,0.4
		c0.1-0.1,0.3-0.3,0.4-0.4l1.1-2l0,0l0.4-0.6l0.4,0.6l1.1,2c0.3,0.4,0.8,0.5,1.1,0.4c0.1-0.1,0.3-0.3,0.4-0.4l1-2l0.4-0.6l0.4,0.6
		l1,2c0.3,0.4,0.8,0.6,1.1,0.4c0.1-0.1,0.3-0.3,0.4-0.4l0.9-1.5h17h7.6h3.2c0.3,0,0.6-0.1,0.8-0.4l0.4-0.6l0.4,0.6l0,0l1.1,2
		c0.3,0.4,0.8,0.5,1.1,0.4c0.1-0.1,0.3-0.1,0.4-0.4l1.1-2l0,0l0.3-0.6l0.4,0.6l1.1,2c0.3,0.4,0.8,0.5,1.1,0.4
		c0.1-0.1,0.3-0.3,0.4-0.4l1.1-2l0,0l0.4-0.6l0.4,0.6l1,2c0.3,0.4,0.8,0.6,1.1,0.4c0.1-0.1,0.3-0.1,0.4-0.4l0.9-1.6h9.3
		c0.5,0,0.9-0.4,0.9-0.9c0-0.5-0.4-0.9-0.9-0.9l0,0h-9.8c-0.3,0-0.6,0.1-0.8,0.4l-0.4,0.6l-0.4-0.6l0,0l-1.1-2
		c-0.3-0.4-0.8-0.5-1.1-0.3c-0.1,0.1-0.3,0.3-0.4,0.4l-1,2l-0.4,0.6l-0.4-0.6l0,0l-1.1-2c-0.3-0.4-0.8-0.5-1.1-0.3
		c-0.1,0.1-0.3,0.3-0.4,0.4l-1,2l-0.4,0.6l-0.4-0.6l-1-2c-0.3-0.4-0.8-0.6-1.1-0.4c-0.1,0.1-0.3,0.1-0.4,0.4l-0.9,1.6h-2.8h-7.6
		h-18.3c-0.3,0-0.6,0.1-0.8,0.4L108,114l-0.3-0.6l0,0l-1.1-2.3c-0.3-0.4-0.8-0.5-1.1-0.4c-0.1,0.1-0.3,0.1-0.4,0.4l-1,2l0,0
		l-0.3,0.6l-0.4-0.6l0,0l-1.1-2c-0.3-0.4-0.8-0.5-1.1-0.3c-0.1,0.1-0.3,0.3-0.4,0.4l-1,2l-0.4,0.6l-0.4-0.8l-1.1-2
		c-0.3-0.4-0.8-0.5-1.1-0.4c-0.1,0.1-0.3,0.3-0.4,0.4l-0.9,1.5H75.4c-0.3,0-0.6,0.1-0.8,0.4l-0.4,0.6l-0.4-0.6l-1-2
		c-0.3-0.4-0.8-0.5-1.1-0.4c-0.1,0.1-0.3,0.3-0.4,0.4l-1.1,2l-0.4,0.6l-0.4-0.6l-0.9-1.9c-0.3-0.4-0.8-0.5-1.1-0.4
		c-0.1,0.1-0.3,0.3-0.4,0.4l-1.1,2l-0.4,0.6l-0.4-0.6l-1.1-2C64,110.8,63.7,110.7,63.5,110.7L63.5,110.7z"/>
	<g id="g1366_7_" transform="translate(1.8466585,0.7386893)">
		<path id="path1368_7_" class="st2" d="M111.4,118.9h20.1v1.5h-20.1V118.9z"/>
		<path id="path1370_7_" class="st2" d="M111.4,118.2c-0.4,0-0.6,0.3-0.6,0.6v1.5c0,0.4,0.3,0.6,0.6,0.6h20.1c0.4,0,0.6-0.3,0.6-0.6
			v-1.5c0-0.4-0.3-0.6-0.6-0.6H111.4z M112.1,119.6h18.7v0.3h-18.7V119.6z"/>
	</g>
	<g id="g1372_7_" transform="translate(1.8466585,0.7386893)">
		<path id="path1374_7_" class="st2" d="M111.4,99.4h20.1v1.5h-20.1V99.4z"/>
		<path id="path1376_7_" class="st2" d="M111.4,98.8c-0.4,0-0.6,0.3-0.6,0.6v1.5c0,0.4,0.3,0.6,0.6,0.6h20.1c0.4,0,0.6-0.3,0.6-0.6
			v-1.5c0-0.4-0.3-0.6-0.6-0.6H111.4z M112.2,100.1H131v0.3h-18.8V100.1z"/>
	</g>
</g>
<g>
	<path id="path138_8_" class="st2" d="M514.6,67.2h-22.8V31.6h22.8v6.9h-14.7v6.1h13.7v6.9h-13.7v8.8h14.7V67.2z"/>
	<path id="path140_8_" d="M535.8,61.4h-12.2V35h2.6v23.3h9.6V61.4z"/>
	<path id="path142_8_" d="M555.4,61.4h-12.7V35h12.7v3.1h-10.1v7.2h10.1v3.1h-10.1v9.8h10.1V61.4z"/>
	<path id="path144_8_" d="M578.8,59.5c-0.5,0.2-0.9,0.6-1.2,0.8c-0.4,0.2-0.9,0.5-1.5,0.8c-0.5,0.2-1.1,0.5-1.7,0.6
		c-0.6,0.1-1.2,0.2-2,0.2c-1.4,0-2.7-0.2-3.8-0.8c-1.2-0.6-2.1-1.4-3-2.5c-0.8-1.1-1.5-2.5-1.9-4.3c-0.5-1.7-0.7-3.8-0.7-6.1
		c0-2.2,0.2-4.1,0.7-5.9s1.1-3.2,1.9-4.4s1.8-2.1,2.9-2.6c1.2-0.6,2.4-0.9,3.8-0.9c1,0,2.1,0.1,3.1,0.5c1,0.3,2.2,0.9,3.4,1.8v4.1
		h-0.2c-1.1-1.3-2.1-2.1-3.2-2.6c-1.1-0.6-2.2-0.8-3.3-0.8c-1,0-1.8,0.2-2.7,0.7c-0.7,0.5-1.5,1.1-2.1,2c-0.6,0.9-1.1,2.1-1.4,3.3
		c-0.3,1.4-0.5,2.9-0.5,4.7c0,1.8,0.2,3.4,0.5,4.8s0.8,2.4,1.4,3.2c0.6,0.9,1.3,1.5,2.1,2c0.8,0.5,1.7,0.6,2.6,0.6
		c1.2,0,2.4-0.3,3.4-0.9c1.1-0.6,2.1-1.5,3-2.6h0.2L578.8,59.5z"/>
	<path id="path146_8_" d="M600.6,38.1h-6.8v23.3h-2.6V38.1h-6.8V35h16.2V38.1z"/>
	<path id="path148_8_" d="M623.5,61.4h-3.3L613.7,51h-3.6v10.5h-2.6V35h5.3c1.2,0,2.1,0.1,2.9,0.3c0.7,0.2,1.5,0.6,2.1,1.1
		c0.7,0.6,1.2,1.4,1.6,2.3c0.4,0.9,0.6,2.1,0.6,3.4c0,2-0.3,3.4-1.1,4.8c-0.7,1.3-1.7,2.3-2.8,2.9L623.5,61.4z M617.6,42.5
		c0-0.8-0.1-1.4-0.3-2c-0.2-0.6-0.5-1-0.9-1.5c-0.3-0.3-0.8-0.6-1.3-0.7c-0.5-0.1-1.1-0.2-1.7-0.2h-3v10h2.6c0.8,0,1.5-0.1,2.1-0.2
		c0.6-0.2,1.1-0.6,1.5-1.1c0.4-0.5,0.7-1,0.8-1.7S617.6,43.5,617.6,42.5L617.6,42.5z"/>
	<path id="path150_8_" d="M637.2,61.4h-7.6v-2.6h2.5v-21h-2.5V35h7.6v2.6h-2.5v21.1h2.5V61.4z"/>
	<path id="path152_8_" d="M660.9,59.5c-0.5,0.2-0.9,0.6-1.2,0.8c-0.4,0.2-0.9,0.5-1.5,0.8c-0.5,0.2-1.1,0.5-1.7,0.6
		c-0.6,0.1-1.2,0.2-2,0.2c-1.4,0-2.7-0.2-3.8-0.8c-1.2-0.6-2.1-1.4-3-2.5c-0.8-1.1-1.5-2.5-1.9-4.3c-0.5-1.7-0.7-3.8-0.7-6.1
		c0-2.2,0.2-4.1,0.7-5.9c0.4-1.7,1.1-3.2,1.9-4.4s1.8-2.1,2.9-2.6c1.2-0.6,2.4-0.9,3.8-0.9c1,0,2.1,0.1,3.1,0.5s2.2,0.9,3.4,1.8v4.1
		h-0.2c-1.1-1.3-2.1-2.1-3.2-2.6c-1-0.6-2.2-0.8-3.3-0.8c-1,0-1.8,0.2-2.7,0.7c-0.7,0.5-1.5,1.1-2.1,2c-0.6,0.9-1.1,2.1-1.4,3.3
		c-0.3,1.4-0.5,2.9-0.5,4.7c0,1.8,0.2,3.4,0.5,4.8s0.8,2.4,1.4,3.2c0.6,0.9,1.3,1.5,2.1,2c0.8,0.5,1.7,0.6,2.6,0.6
		c1.2,0,2.4-0.3,3.4-0.9c1.1-0.6,2.1-1.5,3-2.6h0.2L660.9,59.5z"/>
	<path id="path154_8_" d="M684.1,61.4h-2.7l-1.9-7.4h-8.2l-1.9,7.4h-2.6l7-26.4h3.4L684.1,61.4z M678.7,51.1l-3.3-13l-3.3,13H678.7z
		"/>
	<path id="path156_8_" d="M703.6,61.4h-12.2V35h2.6v23.3h9.6V61.4z"/>
	<path id="path158_8_" d="M729.6,40.3c0-1.1-0.2-2-0.7-2.6c-0.5-0.7-1.1-0.9-1.8-0.9s-1.4,0.3-1.9,1.1c-0.5,0.7-0.7,1.6-0.7,2.6
		c0,0.9,0.2,1.7,0.5,2.4s1.1,1.5,2.2,2.4c0.8-0.5,1.5-1,1.9-1.8C729.3,42.6,729.6,41.5,729.6,40.3L729.6,40.3z M732.1,55.9l-6.2-8.3
		c-0.2,0.2-0.5,0.5-0.8,0.7c-0.2,0.2-0.5,0.7-0.8,1.1c-0.2,0.5-0.4,1-0.6,1.7c-0.2,0.7-0.2,1.4-0.2,2.2c0,1.7,0.3,3.1,1.1,4.1
		c0.7,1,1.7,1.6,3.2,1.6c0.8,0,1.6-0.2,2.3-0.8C730.9,57.7,731.6,56.9,732.1,55.9L732.1,55.9z M735.9,45.3v1.7
		c0,1.1-0.1,2.4-0.3,3.8c-0.2,1.4-0.6,2.8-1.1,4l4.8,6.5h-3.1l-2.9-4c-1,1.7-2,2.9-3,3.6c-1,0.7-2.1,1-3.2,1c-1.7,0-3.2-0.7-4.4-2.2
		c-1.2-1.5-1.7-3.3-1.7-5.6c0-1,0.1-2.1,0.3-2.9c0.2-0.8,0.5-1.5,0.7-2.1c0.3-0.6,0.7-1,1.1-1.6c0.4-0.5,0.9-0.9,1.3-1.3
		c-0.9-0.8-1.7-1.7-2.1-2.5c-0.4-0.9-0.6-2-0.6-3.2c0-0.8,0.1-1.5,0.3-2.3c0.2-0.7,0.6-1.4,1-2c0.4-0.6,1-1,1.7-1.4s1.5-0.6,2.2-0.6
		c1.5,0,2.7,0.6,3.6,1.6c0.9,1,1.4,2.3,1.4,3.9c0,0.6-0.1,1.1-0.2,1.7c-0.1,0.7-0.2,1.3-0.5,1.7c-0.2,0.6-0.7,1.1-1.2,1.7
		c-0.5,0.6-1.2,1-2,1.4l4.7,6.4c0.1-0.5,0.2-1,0.2-1.6c0.1-0.6,0.1-1.1,0.1-1.7c0-0.7,0-1.4,0-2.2c0-0.8,0-1.5,0-2.1L735.9,45.3z"/>
</g>
<g>
	<path id="path180_8_" class="st2" d="M514.6,162.9h-22.8v-35.7h22.8v6.9h-14.7v6.2h13.7v6.9h-13.7v8.8h14.7V162.9z"/>
	<g id="g202_8_">
		<path id="path182_8_" d="M538.3,162.9h-3.2l-9.1-23.7v23.7h-2.4v-26.4h3.9l8.2,21.6v-21.6h2.4L538.3,162.9z"/>
		<path id="path184_8_" d="M563.9,161c-1.1,0.7-2.2,1.3-3.4,1.7s-2.4,0.7-3.6,0.7c-1.5,0-2.8-0.2-4.1-0.8s-2.3-1.4-3.2-2.5
			c-0.9-1.1-1.6-2.5-2.1-4.3c-0.5-1.7-0.7-3.8-0.7-6.1c0-4.3,0.9-7.6,2.7-10c1.8-2.4,4.2-3.7,7.4-3.7c1.1,0,2.2,0.2,3.3,0.6
			c1.2,0.3,2.3,0.9,3.7,1.8v4.1h-0.2c-0.2-0.2-0.7-0.7-1.2-1.1s-1-0.8-1.5-1.1c-0.6-0.3-1.2-0.7-2-0.9c-0.7-0.2-1.6-0.3-2.6-0.3
			c-2.2,0-3.8,0.9-5.1,2.9c-1.2,1.8-1.8,4.5-1.8,7.7c0,3.4,0.7,6.1,1.9,8c1.3,1.8,3.1,2.9,5.3,2.9c0.8,0,1.7-0.1,2.5-0.3
			c0.8-0.2,1.6-0.5,2.2-0.9v-6.4h-5.2v-3.1h7.7V161z"/>
		<path id="path186_8_" d="M579.5,162.9h-7.6v-2.6h2.5v-21h-2.5v-2.8h7.6v2.6H577v21h2.5V162.9z"/>
		<path id="path188_8_" d="M603,162.9h-3.2l-9.1-23.7v23.7h-2.4v-26.4h3.9l8.2,21.6v-21.6h2.4L603,162.9z"/>
		<path id="path190_8_" d="M625.2,162.9h-12.7v-26.4h12.7v3.1h-10.1v7.2h10.1v3.1h-10.1v9.8h10.1V162.9z"/>
		<path id="path192_8_" d="M646.4,162.9h-12.7v-26.4h12.7v3.1h-10.1v7.2h10.1v3.1h-10.1v9.8h10.1V162.9z"/>
		<path id="path194_8_" d="M670.8,162.9h-3.3l-6.4-10.5h-3.6v10.5h-2.6v-26.4h5.3c1.2,0,2.1,0.1,2.9,0.3c0.7,0.2,1.5,0.6,2.1,1.1
			c0.7,0.6,1.2,1.4,1.6,2.3c0.4,0.9,0.6,2.1,0.6,3.4c0,2-0.3,3.4-1.1,4.8c-0.7,1.3-1.7,2.3-2.8,2.9L670.8,162.9z M664.8,144
			c0-0.8-0.1-1.4-0.3-2c-0.2-0.6-0.5-1-0.9-1.5c-0.3-0.3-0.8-0.6-1.3-0.7c-0.5-0.1-1.1-0.2-1.7-0.2h-3v10h2.6c0.8,0,1.5-0.1,2.1-0.2
			c0.6-0.2,1.1-0.6,1.5-1.1c0.4-0.5,0.7-1,0.8-1.7C664.7,145.8,664.8,144.9,664.8,144L664.8,144z"/>
		<path id="path196_8_" d="M684.4,162.9h-7.6v-2.6h2.5v-21h-2.5v-2.8h7.6v2.6h-2.5v21h2.5V162.9z"/>
		<path id="path198_8_" d="M707.9,162.9h-3.2l-9.1-23.7v23.7h-2.4v-26.4h3.9l8.2,21.6v-21.6h2.4L707.9,162.9z"/>
		<path id="path200_8_" d="M733.5,161c-1.1,0.7-2.2,1.3-3.4,1.7s-2.4,0.7-3.6,0.7c-1.5,0-2.8-0.2-4.1-0.8s-2.3-1.4-3.2-2.5
			c-0.9-1.1-1.6-2.5-2.1-4.3c-0.5-1.7-0.7-3.8-0.7-6.1c0-4.3,0.9-7.6,2.7-10c1.8-2.4,4.2-3.7,7.4-3.7c1.1,0,2.2,0.2,3.3,0.6
			c1.2,0.3,2.3,0.9,3.7,1.8v4.1h-0.2c-0.2-0.2-0.7-0.7-1.2-1.1c-0.5-0.5-1-0.8-1.5-1.1c-0.6-0.3-1.2-0.7-2-0.9
			c-0.7-0.2-1.6-0.3-2.6-0.3c-2.2,0-3.8,0.9-5.1,2.9c-1.2,1.8-1.8,4.5-1.8,7.7c0,3.4,0.7,6.1,1.9,8c1.3,1.8,3.1,2.9,5.3,2.9
			c0.8,0,1.7-0.1,2.5-0.3c0.8-0.2,1.6-0.5,2.2-0.9v-6.4h-5.2v-3.1h7.7V161z"/>
	</g>
</g>
<g>
	<path id="path160_8_" d="M537.9,110.9h-12.1V84.5h2.6v23.3h9.6L537.9,110.9z"/>
	<path id="path162_8_" d="M560.3,110.9h-12.7V84.5h12.7v3.1h-10.1v7.2h10.1v3.1h-10.1v9.8h10.1V110.9z"/>
	<path id="path164_8_" d="M586.2,108.9c-0.5,0.2-0.9,0.6-1.2,0.8c-0.4,0.2-0.9,0.5-1.5,0.8c-0.5,0.2-1.1,0.5-1.7,0.6
		c-0.6,0.1-1.2,0.2-2,0.2c-1.4,0-2.7-0.2-3.8-0.8c-1.2-0.6-2.1-1.4-3-2.5c-0.8-1.1-1.5-2.5-1.9-4.3c-0.5-1.7-0.7-3.8-0.7-6.1
		c0-2.2,0.2-4.1,0.7-5.9c0.4-1.7,1.1-3.2,1.9-4.4c0.8-1.1,1.8-2.1,2.9-2.6c1.2-0.6,2.4-0.9,3.8-0.9c1,0,2.1,0.1,3.1,0.5
		c1,0.3,2.2,0.9,3.4,1.8v4.1H586c-1.1-1.3-2.1-2.1-3.2-2.6c-1-0.6-2.2-0.8-3.3-0.8c-1,0-1.8,0.2-2.7,0.7c-0.7,0.5-1.5,1.1-2.1,2
		c-0.6,0.9-1.1,2.1-1.4,3.3c-0.3,1.4-0.5,2.9-0.5,4.7c0,1.8,0.2,3.4,0.5,4.8c0.3,1.4,0.8,2.4,1.4,3.2c0.6,0.9,1.3,1.5,2.1,2
		c0.8,0.5,1.7,0.6,2.6,0.6c1.2,0,2.4-0.3,3.4-0.9c1.1-0.6,2.1-1.5,3-2.6h0.2L586.2,108.9z"/>
	<path id="path166_8_" d="M610.7,87.6h-6.8v23.3h-2.6V87.6h-6.8v-3.1h16.2V87.6z"/>
	<path id="path168_8_" d="M636.4,110.9H633l-6.4-10.5h-3.6v10.5h-2.6V84.5h5.3c1.2,0,2.1,0.1,2.9,0.3c0.7,0.2,1.5,0.6,2.1,1.1
		c0.7,0.6,1.2,1.4,1.6,2.3c0.4,0.9,0.6,2.1,0.6,3.4c0,2-0.3,3.4-1.1,4.8c-0.7,1.3-1.7,2.3-2.8,2.9L636.4,110.9z M630.4,91.8
		c0-0.8-0.1-1.4-0.3-2c-0.2-0.6-0.5-1-0.9-1.5c-0.3-0.3-0.8-0.6-1.3-0.7c-0.5-0.1-1.1-0.2-1.7-0.2h-3v10h2.6c0.8,0,1.5-0.1,2.1-0.2
		c0.6-0.2,1.1-0.6,1.5-1.1c0.4-0.5,0.7-1,0.8-1.7C630.3,93.7,630.4,92.8,630.4,91.8L630.4,91.8z"/>
	<path id="path170_8_" d="M660.3,87.4c0.7,1.1,1.4,2.6,1.7,4.4c0.4,1.7,0.7,3.7,0.7,5.9c0,2.2-0.2,4.1-0.7,5.9
		c-0.4,1.7-1,3.1-1.7,4.3c-0.7,1.1-1.7,2.1-2.8,2.6s-2.3,0.9-3.7,0.9c-1.3,0-2.6-0.3-3.7-0.9c-1.1-0.6-2-1.5-2.8-2.6
		c-0.7-1.1-1.3-2.6-1.7-4.4c-0.4-1.7-0.6-3.7-0.6-5.9c0-2.2,0.2-4.1,0.6-5.7c0.4-1.7,1-3.2,1.8-4.4c0.7-1.1,1.7-2.1,2.8-2.6
		c1.1-0.6,2.3-0.9,3.7-0.9c1.3,0,2.6,0.3,3.7,0.9C658.6,85.4,659.5,86.3,660.3,87.4L660.3,87.4z M660.1,97.7c0-3.4-0.6-6.1-1.7-7.9
		c-1.1-1.8-2.7-2.8-4.6-2.8s-3.5,0.9-4.6,2.8s-1.7,4.5-1.7,7.9c0,3.4,0.6,6.1,1.7,7.9c1.2,1.8,2.7,2.8,4.6,2.8s3.4-0.9,4.6-2.8
		C659.5,103.8,660.1,101.1,660.1,97.7L660.1,97.7z"/>
	<path id="path172_8_" d="M688.6,110.9h-3.2l-9.1-23.7v23.7h-2.4V84.5h3.9l8.2,21.6V84.5h2.4L688.6,110.9z"/>
	<path id="path174_8_" d="M707.6,110.9H700v-2.6h2.5V87.1H700v-2.6h7.6v2.6h-2.5v21h2.5V110.9z"/>
	<path id="path176_8_" d="M733.9,108.9c-0.5,0.2-0.9,0.6-1.2,0.8c-0.4,0.2-0.9,0.5-1.5,0.8c-0.5,0.2-1.1,0.5-1.7,0.6
		c-0.6,0.1-1.2,0.2-2,0.2c-1.4,0-2.7-0.2-3.8-0.8c-1.2-0.6-2.1-1.4-3-2.5c-0.8-1.1-1.5-2.5-1.9-4.3c-0.5-1.7-0.7-3.8-0.7-6.1
		c0-2.2,0.2-4.1,0.7-5.9c0.4-1.7,1.1-3.2,1.9-4.4c0.8-1.1,1.8-2.1,2.9-2.6c1.2-0.6,2.4-0.9,3.8-0.9c1,0,2.1,0.1,3.1,0.5
		c1,0.3,2.2,0.9,3.4,1.8v4.1h-0.2c-1.1-1.3-2.1-2.1-3.2-2.6c-1-0.6-2.2-0.8-3.3-0.8c-1,0-1.8,0.2-2.7,0.7c-0.7,0.5-1.5,1.1-2.1,2
		c-0.6,0.9-1.1,2.1-1.4,3.3c-0.3,1.4-0.5,2.9-0.5,4.7c0,1.8,0.2,3.4,0.5,4.8c0.3,1.4,0.8,2.4,1.4,3.2c0.6,0.9,1.3,1.5,2.1,2
		c0.8,0.5,1.7,0.6,2.6,0.6c1.2,0,2.4-0.3,3.4-0.9c1.1-0.6,2.1-1.5,3-2.6h0.2L733.9,108.9z"/>
	<path id="path204_8_" class="st2" d="M514.6,114.4h-22.8V78.8h22.8v6.9h-14.7v6.1h13.7v6.9h-13.7v8.8h14.7V114.4z"/>
</g>
<path id="path208_8_" d="M472.1,153.3c1.6,0,3.1,0.3,4.4,0.8c1.4,0.5,2.4,1.1,3.1,2c0.5,0.6,0.9,1.2,1.1,1.9
	c0.2,0.7,0.4,1.7,0.4,2.8v3.2h-17.8v-3.2c0-1.2,0.1-2.2,0.4-2.9c0.2-0.7,0.6-1.3,1-1.8c0.7-0.9,1.7-1.5,3-2
	C469,153.6,470.5,153.3,472.1,153.3L472.1,153.3z M472.1,155.1c-1.4,0-2.6,0.2-3.5,0.5c-1,0.4-1.7,0.9-2.2,1.5
	c-0.4,0.5-0.6,1.1-0.9,1.6c-0.1,0.5-0.2,1.2-0.2,2v1.6H479v-1.6c0-0.8-0.1-1.5-0.2-2.1s-0.5-1.1-0.9-1.7c-0.6-0.6-1.4-1.1-2.2-1.4
	C474.8,155.3,473.5,155.1,472.1,155.1L472.1,155.1z"/>
<path id="path210_8_" d="M481.1,143.2v7.6h-16.3v-7.6h2v6h4.5v-6h2v6h6.1v-6H481.1z"/>
<path id="path212_8_" d="M469.7,133.2c0.7,0,1.4,0.1,2,0.3c0.6,0.2,1.1,0.4,1.6,0.7c0.6,0.4,1,0.9,1.2,1.4c0.2,0.5,0.4,1.2,0.4,2
	v1.5h6.1v1.5h-16.3v-3.2c0-0.7,0.1-1.3,0.2-1.8c0.1-0.4,0.4-0.9,0.7-1.3c0.4-0.4,1-0.8,1.6-1.1C467.9,133.4,468.7,133.2,469.7,133.2
	L469.7,133.2z M469.7,134.9c-0.6,0-1,0.1-1.5,0.2c-0.4,0.2-0.7,0.4-1,0.6s-0.4,0.5-0.5,0.9s-0.1,0.7-0.1,1.2v1.5h6.6v-1.3
	c0-0.6-0.1-1.1-0.2-1.5c-0.1-0.4-0.4-0.7-0.7-1c-0.4-0.3-0.7-0.4-1.1-0.5C470.7,134.9,470.2,134.9,469.7,134.9L469.7,134.9z"/>
<path id="path214_8_" d="M481.1,122.2v1.7l-4.6,1.1v5l4.6,1.1v1.6l-16.3-4.2v-2L481.1,122.2z M474.6,125.4l-8.1,2l8.1,2V125.4z"/>
<path id="path216_8_" d="M481.1,110.9v2l-6.5,3.9v2.2h6.5v1.5h-16.3v-3.2c0-0.7,0.1-1.3,0.2-1.8c0.1-0.4,0.4-0.9,0.6-1.2
	c0.4-0.4,0.9-0.7,1.4-1c0.6-0.3,1.2-0.4,2.1-0.4c1.1,0,2.1,0.2,3,0.6c0.7,0.4,1.4,1,1.7,1.8L481.1,110.9z M469.3,114.5
	c-0.5,0-0.9,0.1-1.2,0.2c-0.4,0.1-0.6,0.3-0.9,0.6c-0.2,0.3-0.4,0.5-0.5,0.8s-0.1,0.7-0.1,1.1v1.8h6.2v-1.6c0-0.5,0-0.9-0.1-1.2
	c-0.1-0.4-0.4-0.7-0.6-1c-0.2-0.3-0.6-0.4-1-0.5C470.4,114.5,469.9,114.5,469.3,114.5L469.3,114.5z"/>
<path id="path218_8_" d="M466.7,101.2v4.1h14.4v1.5h-14.4v4.1h-2v-9.7L466.7,101.2z"/>
<path id="path220_8_" d="M481.1,89.4v1.5H467l9.6,3.2V95l-9.6,3.2h14.1v1.4h-16.3v-2.1l9.1-3.1l-9.1-3v-2.1L481.1,89.4z"/>
<path id="path222_8_" d="M481.1,78.7v7.6h-16.3v-7.6h2v6h4.5v-6h2v6h6.1v-6H481.1z"/>
<path id="path224_8_" d="M481.1,67.5v1.9l-14.7,5.4h14.7v1.4h-16.3v-2.4l13.3-5h-13.3v-1.4H481.1z"/>
<path id="path226_8_" d="M466.7,56.2v4.1h14.4v1.5h-14.4v4.1h-2v-9.7H466.7z"/>
<path id="path228_8_" d="M466.5,40.5c0.7-0.4,1.6-0.8,2.7-1.1c1.1-0.3,2.2-0.4,3.6-0.4c1.4,0,2.6,0.1,3.6,0.4c1.1,0.3,2,0.6,2.6,1.1
	c0.7,0.4,1.2,1.1,1.6,1.7c0.4,0.6,0.6,1.4,0.6,2.2s-0.2,1.6-0.6,2.2c-0.4,0.7-1,1.2-1.6,1.7c-0.7,0.4-1.6,0.8-2.6,1.1
	s-2.2,0.4-3.6,0.4s-2.5-0.1-3.6-0.4c-1.1-0.3-2-0.6-2.7-1.1c-0.7-0.4-1.2-1.1-1.6-1.7c-0.4-0.7-0.6-1.4-0.6-2.2
	c0-0.8,0.2-1.6,0.6-2.2S465.9,41,466.5,40.5L466.5,40.5z M472.9,40.7c-2.1,0-3.7,0.4-4.9,1c-1.1,0.7-1.7,1.6-1.7,2.7
	c0,1.1,0.6,2.1,1.7,2.8s2.7,1,4.9,1s3.7-0.4,5-1.1c1.1-0.7,1.7-1.6,1.7-2.7c0-1.1-0.6-2-1.7-2.7C476.6,41,475,40.7,472.9,40.7z"/>
<path id="path230_8_" d="M466.7,29.3v5.8h4.6v-5h2v5h7.8v1.5h-16.3v-7.4L466.7,29.3L466.7,29.3z"/>
<line class="st1" x1="428.6" y1="75.2" x2="428.6" y2="126.2"/>
</svg>
